<svg id="Layer_2" data-name="Layer 2" xmlns="http://www.w3.org/2000/svg" viewBox="0 0 585.41 486"><defs><style>.cls-1{fill:#f9e4f8;}.cls-2{fill:#edb7e3;}.cls-3{fill:#fff;opacity:0.6;}.cls-4{fill:#151057;}</style></defs><circle class="cls-1" cx="295.03" cy="243" r="243"/><path class="cls-2" d="M495.1,446.93c-1.35,14.21-3.37,28.59-6.11,43.05,0,0-107.57,122.6-271.53-2.44,0,0-1.7-8.26-3.55-22.13-4.75-35.6-10.45-108.13,9.29-172.53C241,234.81,279.49,183.35,358,171.53c65.36-9.84,117.88,62.73,134,164.55A442.89,442.89,0,0,1,495.1,446.93Z" transform="translate(-59.97 -122)"/><path class="cls-2" d="M632.57,447.23s-63.2,64.89-137.47-.3A442.89,442.89,0,0,0,492,336.08c15.87-14,40.55-20.66,78.95-7.83C658.11,357.35,653.65,410,632.57,447.23Z" transform="translate(-59.97 -122)"/><path class="cls-2" d="M213.91,465.41c-47.71,20.15-100,22.19-123.36-6.11C46.6,406.09,55,313.66,149.85,286.06c27.4-8,52.1-3.51,73.35,6.82C203.46,357.28,209.16,429.81,213.91,465.41Z" transform="translate(-59.97 -122)"/><ellipse class="cls-3" cx="195.51" cy="288.1" rx="17.29" ry="5.8" transform="translate(-71.36 -113.94) rotate(-2.3)"/><ellipse class="cls-3" cx="586.2" cy="350.17" rx="7.19" ry="14.35" transform="translate(-105.1 488.32) rotate(-53.25)"/><ellipse class="cls-3" cx="396.14" cy="202.05" rx="13.3" ry="27.23" transform="translate(-14.95 352.93) rotate(-64.88)"/><path class="cls-4" d="M223.8,485.35A352.81,352.81,0,0,1,221.55,321a303,303,0,0,1,10.12-35.09,227.29,227.29,0,0,1,14.21-32q4.25-7.86,9.18-15.33a164.87,164.87,0,0,1,10.15-13.79,160.12,160.12,0,0,1,12-13.1,145.42,145.42,0,0,1,12.71-11,133.35,133.35,0,0,1,14.28-9.36c2.49-1.41,5-2.73,7.59-4q1.81-.89,3.66-1.71l2-.86.24-.1,1.32-.55a132,132,0,0,1,16.21-5.35c2.75-.71,5.51-1.32,8.3-1.84,1.23-.23,2.47-.44,3.71-.63l1.16-.18.57-.08.8-.1,1.16-.14a113.33,113.33,0,0,1,16.78-.64c2.78.11,5.56.32,8.33.65l1.15.14c-.2,0-.74-.11.18,0l1.84.28c1.44.23,2.89.5,4.32.8a88.27,88.27,0,0,1,30.64,12.51A99.35,99.35,0,0,1,427.75,200a136.54,136.54,0,0,1,12.45,12.89,181.18,181.18,0,0,1,20.19,29.91c12.43,22.65,20.67,47.27,25.91,72.69a379.68,379.68,0,0,1,7.32,78.1c-.1,25-2.81,49.83-5.49,74.66Q487,478.34,486,488.5c-.24,2.42,2.24,4.5,4.5,4.5,2.64,0,4.26-2.07,4.5-4.5,2.6-25.95,6.06-51.86,7.21-77.93A413.85,413.85,0,0,0,498,329.68c-4-26.34-11.19-52.21-22.28-76.47-10.38-22.72-24.4-44.8-43.43-61.26a107.43,107.43,0,0,0-31.44-19.22A102.71,102.71,0,0,0,367,166.09c-23.51-.74-47.14,5.93-67.51,17.53-21.14,12-38.47,29.84-51.91,50C234,254,224.33,277,217.53,300.45a352.51,352.51,0,0,0-13.22,81.79,363.65,363.65,0,0,0,6.29,85.36q2,10.14,4.52,20.14a4.5,4.5,0,0,0,8.68-2.39Z" transform="translate(-59.97 -122)"/><path class="cls-4" d="M270.22,238.43l-3.77,12.2a4.54,4.54,0,0,0,3.14,5.54,4.6,4.6,0,0,0,5.54-3.14l3.77-12.2a4.54,4.54,0,0,0-3.14-5.54,4.6,4.6,0,0,0-5.54,3.14Z" transform="translate(-59.97 -122)"/><path class="cls-4" d="M414.83,226.1,421,242a4.88,4.88,0,0,0,2.07,2.69,4.61,4.61,0,0,0,3.47.45c2.12-.68,4.06-3.19,3.14-5.53l-6.21-15.87a4.86,4.86,0,0,0-2.06-2.69,4.62,4.62,0,0,0-3.47-.45c-2.12.68-4.06,3.19-3.15,5.53Z" transform="translate(-59.97 -122)"/><path class="cls-4" d="M224.79,286.46c-20-11.52-44.73-11.65-66.76-7.08A133.44,133.44,0,0,0,103.16,305a114.23,114.23,0,0,0-36,47.61C60,370.81,58.32,391,61.56,410.25c3.21,19,11.74,37.33,25,51.42q2.44,2.58,5.09,5a4.6,4.6,0,0,0,6.37,0c1.57-1.72,1.87-4.69,0-6.37a85.61,85.61,0,0,1-9.5-10c-.15-.18-1.28-1.64-.6-.76l-1-1.27c-.69-.94-1.37-1.9-2-2.88-1.28-1.89-2.49-3.84-3.63-5.83s-2.2-4-3.19-6.09c-.48-1-1-2-1.39-3.05-.1-.21-.19-.43-.28-.65.4.93.07.17,0-.06l-.72-1.81a100.12,100.12,0,0,1-4.1-13.19q-.78-3.3-1.35-6.63c-.1-.58-.19-1.17-.28-1.76,0-.23-.07-.47-.11-.7,0,0-.17-1.2-.07-.46s0-.43,0-.47l-.09-.7c-.08-.71-.16-1.42-.23-2.13A104.9,104.9,0,0,1,69,388.08q.11-3.49.45-7c.1-1.06.23-2.13.36-3.19s-.15,1,0-.22c0-.24.07-.47.11-.71.09-.65.2-1.29.31-1.94a102,102,0,0,1,3.19-13.35q1.07-3.4,2.38-6.72c.19-.5.4-1,.6-1.49.27-.68-.43,1,0-.08.1-.21.19-.43.28-.65.49-1.1,1-2.19,1.51-3.26A103.91,103.91,0,0,1,85.4,337c.65-1,1.31-1.93,2-2.88.32-.45.65-.89,1-1.34l.44-.59.54-.72c-.41.54.32-.41.32-.41.15-.2.31-.39.46-.58.38-.48.77-1,1.16-1.43.78-.95,1.58-1.88,2.39-2.8a116.2,116.2,0,0,1,10.16-10.18q2.63-2.32,5.39-4.5l.42-.33.43-.33,1.33-1c1-.77,2.11-1.53,3.17-2.26a127.88,127.88,0,0,1,12.21-7.44c2.13-1.14,4.3-2.23,6.49-3.25,1-.47,2-.92,3.06-1.37l1-.44c-.15.06-.83.34,0,0l1.9-.77a129.65,129.65,0,0,1,27.8-7.54l1.84-.26c-1.12.16.55-.07.83-.11,1.29-.15,2.58-.29,3.88-.4,2.67-.24,5.36-.4,8.05-.46s5.61,0,8.41.15c1.37.08,2.73.19,4.09.33l1.92.22.3,0,1.27.19a74.08,74.08,0,0,1,16,4.36c.83.33.28.12.11,0l1,.43c.59.27,1.17.54,1.74.82,1.28.63,2.54,1.3,3.77,2a4.5,4.5,0,0,0,4.55-7.77Z" transform="translate(-59.97 -122)"/><path class="cls-4" d="M495.22,335a106.93,106.93,0,0,1,40.28-8.53,115.69,115.69,0,0,1,41.3,6.8,107.22,107.22,0,0,1,35.45,21c11.06,10,20.28,22.63,24.45,37.08a58.8,58.8,0,0,1,1.85,23.31c-1,8.74-3.74,17.23-6.64,25.5-.73,2.08-1.48,4.17-2.23,6.25a3,3,0,0,0,2.1,3.69,3.08,3.08,0,0,0,3.69-2.1c3.13-8.68,6.27-17.42,8-26.51a68.51,68.51,0,0,0,.29-26.31c-3-15.63-11.95-29.79-23-41a112,112,0,0,0-37-24.58,120.62,120.62,0,0,0-43.06-9.09,114,114,0,0,0-43.15,7.12c-1.82.69-3.61,1.44-5.4,2.21-1.49.65-1.82,2.83-1.08,4.11a3.09,3.09,0,0,0,4.11,1.07Z" transform="translate(-59.97 -122)"/><path class="cls-4" d="M111.73,321.45a25.29,25.29,0,0,1,3,5.18l-.45-1.07a25.64,25.64,0,0,1,1.68,6.2l-.16-1.19c.09.68.15,1.37.18,2.06a4.58,4.58,0,0,0,4.5,4.5c2.34-.11,4.63-2,4.5-4.5a28.92,28.92,0,0,0-5.43-15.73,4.9,4.9,0,0,0-2.69-2.06,4.5,4.5,0,0,0-5.54,3.14,4.39,4.39,0,0,0,.46,3.47Z" transform="translate(-59.97 -122)"/><path class="cls-4" d="M187.58,303.09l3.92,7.21a4.6,4.6,0,0,0,2.69,2.06,4.55,4.55,0,0,0,3.46-.45,4.5,4.5,0,0,0,2.07-2.69,4.82,4.82,0,0,0-.45-3.47l-3.91-7.2a4.51,4.51,0,0,0-6.16-1.62,4.54,4.54,0,0,0-2.07,2.69,4.88,4.88,0,0,0,.45,3.47Z" transform="translate(-59.97 -122)"/><path class="cls-4" d="M93,467.83a128,128,0,0,0,46.16,14.3,130,130,0,0,0,47.71-3.39A125,125,0,0,0,212.28,469a4.53,4.53,0,0,0,1.61-6.16,4.6,4.6,0,0,0-6.15-1.61q-2.56,1.32-5.19,2.51c-.81.37-1.63.72-2.44,1.08s.6-.24-.07,0l-.57.23-1.52.61q-5.35,2.1-10.9,3.68t-11,2.6q-2.84.53-5.68.93c-.13,0-1,.13-.42.06l-.22,0-1.43.17c-1,.11-1.91.21-2.86.29a127.34,127.34,0,0,1-23,0l-2.66-.27-1.43-.16c-.27,0-1.49-.2-.64-.08-1.9-.26-3.79-.57-5.68-.91q-5.67-1.05-11.21-2.61a122.59,122.59,0,0,1-12.25-4.16l-1.33-.55c-.82-.33-.23-.1-.06,0l-.76-.33c-1-.44-2-.89-3-1.36q-3-1.39-5.87-3A4.5,4.5,0,1,0,93,467.83Z" transform="translate(-59.97 -122)"/><path class="cls-4" d="M214.51,485.86c9.62,15.68,24.08,27.64,40.33,36,16.45,8.47,34.43,13.69,52.57,17.06,22.59,4.21,45.8,6.41,68.78,5.28,21.64-1.07,43.25-5.13,63.32-13.44,18.58-7.7,35.88-18.63,49.83-33.23,1.67-1.75,3.27-3.54,4.83-5.38s1.89-4.62,0-6.36c-1.67-1.54-4.73-1.92-6.36,0a124.34,124.34,0,0,1-10,10.44c-1.76,1.63-3.56,3.22-5.41,4.75-.9.75-1.8,1.48-2.72,2.2l-.4.32-.24.18L467.34,505a145.12,145.12,0,0,1-24.66,14.61c-1.06.5-2.13,1-3.2,1.46l-1.62.7c-.09,0-.93.4-.47.21l-.68.28q-3.36,1.38-6.78,2.61-6.82,2.46-13.86,4.32-7.5,2-15.16,3.32c-5.68,1-10.53,1.62-16.39,2.13a244.65,244.65,0,0,1-34.46.46,312.79,312.79,0,0,1-33.68-3.7,249.91,249.91,0,0,1-26.13-5.61q-6.44-1.75-12.74-4-3.27-1.14-6.5-2.43l-1.51-.61-.75-.31s-.66-.28-.21-.08-.28-.13-.4-.18l-.74-.32-1.67-.74A120.2,120.2,0,0,1,243,503.93c-.22-.16-1.32-1-.65-.49l-1.23-1c-.87-.7-1.72-1.42-2.57-2.15q-2.44-2.12-4.74-4.4c-1.48-1.49-2.91-3-4.28-4.61-.69-.79-1.36-1.6-2-2.42-.12-.16-1.06-1.37-.51-.65-.4-.53-.8-1.06-1.18-1.59-1.26-1.73-2.43-3.51-3.55-5.32a4.5,4.5,0,1,0-7.77,4.54Z" transform="translate(-59.97 -122)"/><path class="cls-4" d="M328,248.29A66.91,66.91,0,0,1,339,254.37c1,.66,1.91,1.34,2.83,2.05-.63-.49.45.36.46.37l1.35,1.11a17.06,17.06,0,0,0,6.07,3.8,8.79,8.79,0,0,0,7.49-1.3,23.51,23.51,0,0,0,4.65-4.95l9-11.37c1.45-1.84,1.93-4.58,0-6.36-1.62-1.49-4.81-2-6.37,0l-8.19,10.41a48.54,48.54,0,0,1-3.64,4.44,6.77,6.77,0,0,1-.56.52q.56-.41.15-.15a2.87,2.87,0,0,1-.48.28c.52-.21.53-.24,0-.1.51-.05.59-.08.25-.08s-.25,0,.27,0c-.48-.16-.48-.14,0,.06q-.26-.12-.51-.27a11,11,0,0,1-1.15-.77c.62.47-.15-.14-.33-.3-.77-.64-1.54-1.29-2.33-1.91-1.67-1.32-3.38-2.59-5.15-3.77a66.63,66.63,0,0,0-10.35-5.59c-2.15-.93-4.93-.71-6.16,1.61-1,1.94-.69,5.16,1.62,6.16Z" transform="translate(-59.97 -122)"/><path class="cls-4" d="M518.07,336.78a18.73,18.73,0,0,0-1.92,2.24,11.77,11.77,0,0,0-1.06,1.64,19.39,19.39,0,0,0-1.18,2.73,11.22,11.22,0,0,0-.47,1.9,5.06,5.06,0,0,0,.45,3.46,4.51,4.51,0,0,0,6.16,1.62,4.43,4.43,0,0,0,2.07-2.69,11.56,11.56,0,0,1,.76-2.64l-.46,1.07a12.55,12.55,0,0,1,1.5-2.55l-.7.91a13.83,13.83,0,0,1,1.21-1.33,4.5,4.5,0,0,0-3.18-7.68,4.87,4.87,0,0,0-3.18,1.32Z" transform="translate(-59.97 -122)"/><path class="cls-4" d="M598.6,367.15,596.42,370a3.37,3.37,0,0,0-.54,1.67,3.45,3.45,0,0,0,.09,1.8,3.32,3.32,0,0,0,.8,1.53,3.51,3.51,0,0,0,1.26,1.16l1.08.45a4.61,4.61,0,0,0,2.39,0l1.08-.45a4.54,4.54,0,0,0,1.61-1.62l2.18-2.86a3.34,3.34,0,0,0,.54-1.67,3.51,3.51,0,0,0-.08-1.79,3.34,3.34,0,0,0-.81-1.53,3.43,3.43,0,0,0-1.26-1.16l-1.08-.46a4.61,4.61,0,0,0-2.39,0l-1.07.46a4.47,4.47,0,0,0-1.62,1.61Z" transform="translate(-59.97 -122)"/><path class="cls-4" d="M491.84,448.85a93.49,93.49,0,0,0,49.85,25.78c19.76,3.48,40.24.91,59-5.91A150,150,0,0,0,631,453.63a4.5,4.5,0,1,0-4.54-7.78q-6,3.91-12.43,7.26-3.19,1.67-6.48,3.16c-1,.46-2,.9-3,1.33-.82.36-.31.14-.13.06l-.81.33-2,.82a124.92,124.92,0,0,1-27.45,7.4l-.86.12c-.74.1.65-.08-.09,0l-1.72.2c-1.22.14-2.44.25-3.66.35-2.38.18-4.75.29-7.13.31a96.87,96.87,0,0,1-13.94-.81c.91.12-.55-.09-.83-.13l-1.62-.27c-1.15-.2-2.29-.42-3.43-.66-2.21-.47-4.4-1-6.57-1.66s-4.33-1.34-6.45-2.13c-1-.39-2-.8-3.06-1.21-.66-.26.59.27-.06,0l-.57-.25c-.62-.27-1.25-.55-1.87-.84a90,90,0,0,1-13.15-7.51c-1-.7-2-1.42-3-2.16-.11-.09-.67-.52,0,0l-.8-.63c-.48-.38-.95-.77-1.42-1.16q-3-2.49-5.68-5.23a4.5,4.5,0,0,0-6.36,6.36Z" transform="translate(-59.97 -122)"/><path class="cls-4" d="M149.92,324.3a77.8,77.8,0,0,0,11.62,9.14,4.53,4.53,0,0,0,6.15-1.61,110.75,110.75,0,0,0,6.1-12.95,4.48,4.48,0,0,0-.45-3.47,4.51,4.51,0,0,0-6.16-1.62,5.29,5.29,0,0,0-2.07,2.69l-.57,1.42c-.41,1,.4-.93,0,.05l-.3.71c-.43,1-.88,1.95-1.34,2.92-.92,1.93-1.91,3.83-3,5.71l6.16-1.62c-.92-.59-1.82-1.19-2.71-1.82l-1.44-1.05-.59-.45.33.25c-.12-.09-.24-.18-.35-.28-1.75-1.38-3.43-2.85-5-4.38a4.5,4.5,0,0,0-6.36,6.36Z" transform="translate(-59.97 -122)"/><path class="cls-4" d="M548.51,360.41l7.2,5a3.34,3.34,0,0,0,1.67.54,3.41,3.41,0,0,0,1.79-.08,4.52,4.52,0,0,0,3.15-5.54l-.46-1.07a4.54,4.54,0,0,0-1.61-1.62l-7.19-5a5.1,5.1,0,0,0-3.47-.45,4.52,4.52,0,0,0-3.15,5.54l.46,1.07a4.52,4.52,0,0,0,1.61,1.61Z" transform="translate(-59.97 -122)"/></svg>